<mxfile host="app.diagrams.net" modified="2024-04-03T17:19:23.501Z" agent="Mozilla/5.0 (X11; Linux x86_64; rv:124.0) Gecko/20100101 Firefox/124.0" etag="1N3DWPf8kx2oRMEI2mp2" version="24.2.2" type="device" pages="3">
  <diagram id="C5RBs43oDa-KdzZeNtuy" name="decimal_solution">
    <mxGraphModel dx="1496" dy="690" grid="1" gridSize="10" guides="1" tooltips="1" connect="1" arrows="1" fold="1" page="1" pageScale="1" pageWidth="827" pageHeight="1169" background="none" math="0" shadow="0">
      <root>
        <mxCell id="WIyWlLk6GJQsqaUBKTNV-0" />
        <mxCell id="WIyWlLk6GJQsqaUBKTNV-1" parent="WIyWlLk6GJQsqaUBKTNV-0" />
        <mxCell id="BMXip6iZFmBnb7u-zPMA-1" value="Початок" style="rounded=1;whiteSpace=wrap;html=1;arcSize=50;fontSize=14;" vertex="1" parent="WIyWlLk6GJQsqaUBKTNV-1">
          <mxGeometry x="310" y="390" width="170" height="70" as="geometry" />
        </mxCell>
        <mxCell id="BMXip6iZFmBnb7u-zPMA-2" value="bin_num = 0" style="rounded=0;whiteSpace=wrap;html=1;fontSize=14;" vertex="1" parent="WIyWlLk6GJQsqaUBKTNV-1">
          <mxGeometry x="335" y="480" width="120" height="60" as="geometry" />
        </mxCell>
        <mxCell id="BMXip6iZFmBnb7u-zPMA-31" style="edgeStyle=none;curved=1;rounded=0;orthogonalLoop=1;jettySize=auto;html=1;fontSize=14;startSize=8;endSize=8;entryX=0.012;entryY=0.438;entryDx=0;entryDy=0;entryPerimeter=0;" edge="1" parent="WIyWlLk6GJQsqaUBKTNV-1" source="BMXip6iZFmBnb7u-zPMA-3" target="BMXip6iZFmBnb7u-zPMA-3">
          <mxGeometry relative="1" as="geometry">
            <mxPoint x="230" y="573" as="targetPoint" />
            <Array as="points">
              <mxPoint x="170" y="570" />
            </Array>
          </mxGeometry>
        </mxCell>
        <mxCell id="BMXip6iZFmBnb7u-zPMA-35" style="edgeStyle=orthogonalEdgeStyle;rounded=0;orthogonalLoop=1;jettySize=auto;html=1;entryX=0.5;entryY=0;entryDx=0;entryDy=0;fontSize=14;" edge="1" parent="WIyWlLk6GJQsqaUBKTNV-1" source="BMXip6iZFmBnb7u-zPMA-3" target="BMXip6iZFmBnb7u-zPMA-5">
          <mxGeometry relative="1" as="geometry">
            <mxPoint x="590" y="840" as="targetPoint" />
            <Array as="points">
              <mxPoint x="570" y="573" />
              <mxPoint x="570" y="790" />
              <mxPoint x="390" y="790" />
            </Array>
          </mxGeometry>
        </mxCell>
        <mxCell id="BMXip6iZFmBnb7u-zPMA-3" value="i = 0; i &amp;lt; option; i++" style="shape=hexagon;perimeter=hexagonPerimeter2;whiteSpace=wrap;html=1;fixedSize=1;rounded=0;fontSize=14;" vertex="1" parent="WIyWlLk6GJQsqaUBKTNV-1">
          <mxGeometry x="232.5" y="550" width="325" height="45" as="geometry" />
        </mxCell>
        <mxCell id="BMXip6iZFmBnb7u-zPMA-4" value="bin_num += ((static_cast&amp;lt;unsigned int&amp;gt;(solution[option-1-i]-48) * pow(2,i));" style="rounded=0;whiteSpace=wrap;html=1;fontSize=14;" vertex="1" parent="WIyWlLk6GJQsqaUBKTNV-1">
          <mxGeometry x="232.5" y="630" width="325" height="90" as="geometry" />
        </mxCell>
        <mxCell id="BMXip6iZFmBnb7u-zPMA-36" style="edgeStyle=orthogonalEdgeStyle;rounded=0;orthogonalLoop=1;jettySize=auto;html=1;fontSize=14;" edge="1" parent="WIyWlLk6GJQsqaUBKTNV-1" source="BMXip6iZFmBnb7u-zPMA-5" target="BMXip6iZFmBnb7u-zPMA-6">
          <mxGeometry relative="1" as="geometry" />
        </mxCell>
        <mxCell id="BMXip6iZFmBnb7u-zPMA-5" value="return bin_num" style="rounded=0;whiteSpace=wrap;html=1;fontSize=14;" vertex="1" parent="WIyWlLk6GJQsqaUBKTNV-1">
          <mxGeometry x="330" y="820" width="120" height="60" as="geometry" />
        </mxCell>
        <mxCell id="BMXip6iZFmBnb7u-zPMA-6" value="кінець" style="rounded=1;whiteSpace=wrap;html=1;arcSize=50;fillColor=none;glass=0;fontSize=14;" vertex="1" parent="WIyWlLk6GJQsqaUBKTNV-1">
          <mxGeometry x="305" y="910" width="170" height="70" as="geometry" />
        </mxCell>
        <mxCell id="BMXip6iZFmBnb7u-zPMA-14" value="" style="endArrow=none;html=1;rounded=0;fontSize=14;startSize=8;endSize=8;curved=1;entryX=0.5;entryY=1;entryDx=0;entryDy=0;exitX=0.5;exitY=0;exitDx=0;exitDy=0;" edge="1" parent="WIyWlLk6GJQsqaUBKTNV-1" source="BMXip6iZFmBnb7u-zPMA-2" target="BMXip6iZFmBnb7u-zPMA-1">
          <mxGeometry width="50" height="50" relative="1" as="geometry">
            <mxPoint x="360" y="590" as="sourcePoint" />
            <mxPoint x="410" y="540" as="targetPoint" />
          </mxGeometry>
        </mxCell>
        <mxCell id="BMXip6iZFmBnb7u-zPMA-15" value="" style="endArrow=none;html=1;rounded=0;fontSize=14;startSize=8;endSize=8;curved=1;exitX=0.5;exitY=1;exitDx=0;exitDy=0;entryX=0.5;entryY=0;entryDx=0;entryDy=0;" edge="1" parent="WIyWlLk6GJQsqaUBKTNV-1" source="BMXip6iZFmBnb7u-zPMA-2" target="BMXip6iZFmBnb7u-zPMA-3">
          <mxGeometry width="50" height="50" relative="1" as="geometry">
            <mxPoint x="380" y="550" as="sourcePoint" />
            <mxPoint x="395" y="560" as="targetPoint" />
          </mxGeometry>
        </mxCell>
        <mxCell id="BMXip6iZFmBnb7u-zPMA-16" style="edgeStyle=none;curved=1;rounded=0;orthogonalLoop=1;jettySize=auto;html=1;entryX=0.5;entryY=0;entryDx=0;entryDy=0;fontSize=14;startSize=8;endSize=8;" edge="1" parent="WIyWlLk6GJQsqaUBKTNV-1" source="BMXip6iZFmBnb7u-zPMA-3" target="BMXip6iZFmBnb7u-zPMA-3">
          <mxGeometry relative="1" as="geometry" />
        </mxCell>
        <mxCell id="BMXip6iZFmBnb7u-zPMA-17" value="" style="endArrow=none;html=1;rounded=0;fontSize=14;startSize=8;endSize=8;curved=1;entryX=0.5;entryY=1;entryDx=0;entryDy=0;exitX=0.5;exitY=0;exitDx=0;exitDy=0;" edge="1" parent="WIyWlLk6GJQsqaUBKTNV-1" source="BMXip6iZFmBnb7u-zPMA-4" target="BMXip6iZFmBnb7u-zPMA-3">
          <mxGeometry width="50" height="50" relative="1" as="geometry">
            <mxPoint x="415" y="500" as="sourcePoint" />
            <mxPoint x="415" y="480" as="targetPoint" />
          </mxGeometry>
        </mxCell>
        <mxCell id="BMXip6iZFmBnb7u-zPMA-25" value="" style="endArrow=none;html=1;rounded=0;fontSize=14;startSize=8;endSize=8;curved=1;entryX=0.5;entryY=1;entryDx=0;entryDy=0;" edge="1" parent="WIyWlLk6GJQsqaUBKTNV-1" target="BMXip6iZFmBnb7u-zPMA-4">
          <mxGeometry width="50" height="50" relative="1" as="geometry">
            <mxPoint x="395" y="760" as="sourcePoint" />
            <mxPoint x="350" y="710" as="targetPoint" />
          </mxGeometry>
        </mxCell>
        <mxCell id="BMXip6iZFmBnb7u-zPMA-27" value="" style="endArrow=none;html=1;rounded=0;fontSize=14;startSize=8;endSize=8;curved=1;" edge="1" parent="WIyWlLk6GJQsqaUBKTNV-1">
          <mxGeometry width="50" height="50" relative="1" as="geometry">
            <mxPoint x="200" y="760" as="sourcePoint" />
            <mxPoint x="395" y="760" as="targetPoint" />
          </mxGeometry>
        </mxCell>
        <mxCell id="BMXip6iZFmBnb7u-zPMA-28" value="" style="endArrow=none;html=1;rounded=0;fontSize=14;startSize=8;endSize=8;curved=1;" edge="1" parent="WIyWlLk6GJQsqaUBKTNV-1">
          <mxGeometry width="50" height="50" relative="1" as="geometry">
            <mxPoint x="200" y="760" as="sourcePoint" />
            <mxPoint x="200" y="570" as="targetPoint" />
          </mxGeometry>
        </mxCell>
      </root>
    </mxGraphModel>
  </diagram>
  <diagram id="F6FAK2Le3sHlHewnzLDy" name="binary_solution">
    <mxGraphModel dx="1936" dy="893" grid="1" gridSize="10" guides="1" tooltips="1" connect="1" arrows="1" fold="1" page="1" pageScale="1" pageWidth="850" pageHeight="1100" math="0" shadow="0">
      <root>
        <mxCell id="0" />
        <mxCell id="1" parent="0" />
        <mxCell id="u-FBM3DkHWCrHOVFhBes-13" style="edgeStyle=orthogonalEdgeStyle;rounded=0;orthogonalLoop=1;jettySize=auto;html=1;fontSize=14;" edge="1" parent="1" source="u-FBM3DkHWCrHOVFhBes-6" target="u-FBM3DkHWCrHOVFhBes-7">
          <mxGeometry relative="1" as="geometry" />
        </mxCell>
        <mxCell id="u-FBM3DkHWCrHOVFhBes-6" value="початок" style="rounded=1;whiteSpace=wrap;html=1;arcSize=50;fontSize=14;" vertex="1" parent="1">
          <mxGeometry x="290" y="170" width="120" height="60" as="geometry" />
        </mxCell>
        <mxCell id="u-FBM3DkHWCrHOVFhBes-14" style="edgeStyle=orthogonalEdgeStyle;rounded=0;orthogonalLoop=1;jettySize=auto;html=1;entryX=0.5;entryY=0;entryDx=0;entryDy=0;fontSize=14;" edge="1" parent="1" source="u-FBM3DkHWCrHOVFhBes-7" target="u-FBM3DkHWCrHOVFhBes-8">
          <mxGeometry relative="1" as="geometry" />
        </mxCell>
        <mxCell id="u-FBM3DkHWCrHOVFhBes-7" value="bin_num = decimal_solution(a) + decimal_solution(b);" style="whiteSpace=wrap;html=1;fontSize=14;" vertex="1" parent="1">
          <mxGeometry x="185" y="260" width="330" height="60" as="geometry" />
        </mxCell>
        <mxCell id="u-FBM3DkHWCrHOVFhBes-17" style="edgeStyle=orthogonalEdgeStyle;rounded=0;orthogonalLoop=1;jettySize=auto;html=1;entryX=0.5;entryY=0;entryDx=0;entryDy=0;fontSize=14;" edge="1" parent="1" source="u-FBM3DkHWCrHOVFhBes-8" target="u-FBM3DkHWCrHOVFhBes-9">
          <mxGeometry relative="1" as="geometry" />
        </mxCell>
        <mxCell id="u-FBM3DkHWCrHOVFhBes-23" style="edgeStyle=orthogonalEdgeStyle;rounded=0;orthogonalLoop=1;jettySize=auto;html=1;entryX=0.5;entryY=0;entryDx=0;entryDy=0;fontSize=14;" edge="1" parent="1" source="u-FBM3DkHWCrHOVFhBes-8" target="u-FBM3DkHWCrHOVFhBes-11">
          <mxGeometry relative="1" as="geometry">
            <mxPoint x="580" y="650" as="targetPoint" />
            <Array as="points">
              <mxPoint x="581" y="400" />
              <mxPoint x="581" y="650" />
              <mxPoint x="360" y="650" />
            </Array>
          </mxGeometry>
        </mxCell>
        <mxCell id="u-FBM3DkHWCrHOVFhBes-8" value="bin_num != 0" style="rhombus;whiteSpace=wrap;html=1;fontSize=14;" vertex="1" parent="1">
          <mxGeometry x="260" y="360" width="180" height="80" as="geometry" />
        </mxCell>
        <mxCell id="u-FBM3DkHWCrHOVFhBes-18" style="edgeStyle=orthogonalEdgeStyle;rounded=0;orthogonalLoop=1;jettySize=auto;html=1;entryX=0.5;entryY=0;entryDx=0;entryDy=0;fontSize=14;" edge="1" parent="1" source="u-FBM3DkHWCrHOVFhBes-9" target="u-FBM3DkHWCrHOVFhBes-10">
          <mxGeometry relative="1" as="geometry" />
        </mxCell>
        <mxCell id="u-FBM3DkHWCrHOVFhBes-9" value="solution += (bin_num % 2) + &#39;0&#39;;" style="whiteSpace=wrap;html=1;fontSize=14;" vertex="1" parent="1">
          <mxGeometry x="195" y="460" width="310" height="60" as="geometry" />
        </mxCell>
        <mxCell id="u-FBM3DkHWCrHOVFhBes-22" style="edgeStyle=orthogonalEdgeStyle;rounded=0;orthogonalLoop=1;jettySize=auto;html=1;entryX=0;entryY=0.5;entryDx=0;entryDy=0;fontSize=14;" edge="1" parent="1" source="u-FBM3DkHWCrHOVFhBes-10" target="u-FBM3DkHWCrHOVFhBes-8">
          <mxGeometry relative="1" as="geometry">
            <mxPoint x="140" y="430" as="targetPoint" />
            <Array as="points">
              <mxPoint x="350" y="630" />
              <mxPoint x="140" y="630" />
              <mxPoint x="140" y="400" />
            </Array>
          </mxGeometry>
        </mxCell>
        <mxCell id="u-FBM3DkHWCrHOVFhBes-10" value="bin_sum /= 2" style="whiteSpace=wrap;html=1;fontSize=14;" vertex="1" parent="1">
          <mxGeometry x="290" y="550" width="120" height="60" as="geometry" />
        </mxCell>
        <mxCell id="u-FBM3DkHWCrHOVFhBes-26" style="edgeStyle=orthogonalEdgeStyle;rounded=0;orthogonalLoop=1;jettySize=auto;html=1;fontSize=14;" edge="1" parent="1" source="u-FBM3DkHWCrHOVFhBes-11" target="u-FBM3DkHWCrHOVFhBes-20">
          <mxGeometry relative="1" as="geometry" />
        </mxCell>
        <mxCell id="u-FBM3DkHWCrHOVFhBes-11" value="std::reverse(solution.begin(), solution.end());" style="whiteSpace=wrap;html=1;fontSize=14;" vertex="1" parent="1">
          <mxGeometry x="215" y="670" width="290" height="60" as="geometry" />
        </mxCell>
        <mxCell id="u-FBM3DkHWCrHOVFhBes-12" value="Кінець" style="rounded=1;whiteSpace=wrap;html=1;arcSize=50;fontSize=14;" vertex="1" parent="1">
          <mxGeometry x="300" y="850" width="120" height="60" as="geometry" />
        </mxCell>
        <mxCell id="u-FBM3DkHWCrHOVFhBes-27" style="edgeStyle=orthogonalEdgeStyle;rounded=0;orthogonalLoop=1;jettySize=auto;html=1;entryX=0.5;entryY=0;entryDx=0;entryDy=0;fontSize=14;" edge="1" parent="1" source="u-FBM3DkHWCrHOVFhBes-20" target="u-FBM3DkHWCrHOVFhBes-12">
          <mxGeometry relative="1" as="geometry" />
        </mxCell>
        <mxCell id="u-FBM3DkHWCrHOVFhBes-20" value="return solution;" style="whiteSpace=wrap;html=1;fontSize=14;" vertex="1" parent="1">
          <mxGeometry x="300" y="760" width="120" height="60" as="geometry" />
        </mxCell>
        <mxCell id="u-FBM3DkHWCrHOVFhBes-28" value="no" style="text;html=1;align=center;verticalAlign=middle;resizable=0;points=[];autosize=1;strokeColor=none;fillColor=none;fontSize=14;" vertex="1" parent="1">
          <mxGeometry x="440" y="360" width="40" height="30" as="geometry" />
        </mxCell>
        <mxCell id="u-FBM3DkHWCrHOVFhBes-29" value="yes" style="text;html=1;align=center;verticalAlign=middle;resizable=0;points=[];autosize=1;strokeColor=none;fillColor=none;fontSize=14;" vertex="1" parent="1">
          <mxGeometry x="360" y="428" width="40" height="30" as="geometry" />
        </mxCell>
      </root>
    </mxGraphModel>
  </diagram>
  <diagram id="nPM3uRmHR-NMu-PVj4fS" name="main">
    <mxGraphModel dx="2496" dy="759" grid="1" gridSize="10" guides="1" tooltips="1" connect="1" arrows="1" fold="1" page="1" pageScale="1" pageWidth="850" pageHeight="1100" math="0" shadow="0">
      <root>
        <mxCell id="0" />
        <mxCell id="1" parent="0" />
        <mxCell id="x1A4c8Zmej8v2DOBdsBI-5" style="edgeStyle=orthogonalEdgeStyle;rounded=0;orthogonalLoop=1;jettySize=auto;html=1;entryX=0.5;entryY=0;entryDx=0;entryDy=0;fontSize=14;" edge="1" parent="1" source="x1A4c8Zmej8v2DOBdsBI-1" target="x1A4c8Zmej8v2DOBdsBI-2">
          <mxGeometry relative="1" as="geometry" />
        </mxCell>
        <mxCell id="x1A4c8Zmej8v2DOBdsBI-1" value="Початок" style="rounded=1;whiteSpace=wrap;html=1;arcSize=50;fontSize=14;" vertex="1" parent="1">
          <mxGeometry x="370" y="60" width="120" height="60" as="geometry" />
        </mxCell>
        <mxCell id="x1A4c8Zmej8v2DOBdsBI-4" style="edgeStyle=orthogonalEdgeStyle;rounded=0;orthogonalLoop=1;jettySize=auto;html=1;entryX=0.5;entryY=0;entryDx=0;entryDy=0;fontSize=14;" edge="1" parent="1" source="x1A4c8Zmej8v2DOBdsBI-2" target="x1A4c8Zmej8v2DOBdsBI-3">
          <mxGeometry relative="1" as="geometry" />
        </mxCell>
        <mxCell id="x1A4c8Zmej8v2DOBdsBI-2" value="getline(std::cin,a)" style="whiteSpace=wrap;html=1;fontSize=14;" vertex="1" parent="1">
          <mxGeometry x="370" y="150" width="120" height="60" as="geometry" />
        </mxCell>
        <mxCell id="x1A4c8Zmej8v2DOBdsBI-7" style="edgeStyle=orthogonalEdgeStyle;rounded=0;orthogonalLoop=1;jettySize=auto;html=1;entryX=0.5;entryY=0;entryDx=0;entryDy=0;fontSize=14;" edge="1" parent="1" source="x1A4c8Zmej8v2DOBdsBI-3" target="x1A4c8Zmej8v2DOBdsBI-6">
          <mxGeometry relative="1" as="geometry" />
        </mxCell>
        <mxCell id="x1A4c8Zmej8v2DOBdsBI-3" value="assert(a.length() == option )" style="whiteSpace=wrap;html=1;fontSize=14;" vertex="1" parent="1">
          <mxGeometry x="310" y="240" width="240" height="60" as="geometry" />
        </mxCell>
        <mxCell id="x1A4c8Zmej8v2DOBdsBI-9" value="" style="edgeStyle=orthogonalEdgeStyle;rounded=0;orthogonalLoop=1;jettySize=auto;html=1;fontSize=14;" edge="1" parent="1" source="x1A4c8Zmej8v2DOBdsBI-6" target="x1A4c8Zmej8v2DOBdsBI-8">
          <mxGeometry relative="1" as="geometry" />
        </mxCell>
        <mxCell id="x1A4c8Zmej8v2DOBdsBI-6" value="std::cout &amp;lt;&amp;lt; a &amp;lt;&amp;lt; &quot; + &quot; &amp;lt;&amp;lt; b &amp;lt;&amp;lt; &quot; = &quot; &amp;lt;&amp;lt; binary_solution(a,b) &amp;lt;&amp;lt; std::endl;" style="whiteSpace=wrap;html=1;fontSize=14;" vertex="1" parent="1">
          <mxGeometry x="157.5" y="340" width="545" height="60" as="geometry" />
        </mxCell>
        <mxCell id="x1A4c8Zmej8v2DOBdsBI-11" value="" style="edgeStyle=orthogonalEdgeStyle;rounded=0;orthogonalLoop=1;jettySize=auto;html=1;fontSize=14;" edge="1" parent="1" source="x1A4c8Zmej8v2DOBdsBI-8" target="x1A4c8Zmej8v2DOBdsBI-10">
          <mxGeometry relative="1" as="geometry" />
        </mxCell>
        <mxCell id="x1A4c8Zmej8v2DOBdsBI-8" value="std::cout &amp;lt;&amp;lt; decimal_solution(a) &amp;lt;&amp;lt; &quot; + &quot; &amp;lt;&amp;lt; decimal_solution(b) &amp;lt;&amp;lt; &quot; = &quot; &amp;lt;&amp;lt; decimal_solution(a) + decimal_solution(b) &amp;lt;&amp;lt; std::endl;" style="whiteSpace=wrap;html=1;fontSize=14;" vertex="1" parent="1">
          <mxGeometry x="-38.120000000000005" y="450" width="936.25" height="60" as="geometry" />
        </mxCell>
        <mxCell id="x1A4c8Zmej8v2DOBdsBI-10" value="Кінець" style="rounded=1;whiteSpace=wrap;html=1;arcSize=50;fontSize=14;" vertex="1" parent="1">
          <mxGeometry x="370" y="550" width="120" height="60" as="geometry" />
        </mxCell>
      </root>
    </mxGraphModel>
  </diagram>
</mxfile>
